<?xml version="1.0" encoding="iso-8859-1"?>
<!-- Generator: Adobe Illustrator 19.0.0, SVG Export Plug-In . SVG Version: 6.00 Build 0)  -->
<svg version="1.1" id="Capa_1" xmlns="http://www.w3.org/2000/svg" xmlns:xlink="http://www.w3.org/1999/xlink" x="0px" y="0px"
	 viewBox="0 0 480.059 480.059" style="enable-background:new 0 0 480.059 480.059;" xml:space="preserve">
<g>
	<g>
		<g>
			<path d="M256.124,295.625c66.096-44.229,83.822-133.665,39.593-199.761S162.052,12.042,95.956,56.271
				S12.134,189.936,56.363,256.032c12.736,19.033,29.828,34.753,49.857,45.857v0.008c11.27,6.317,23.361,11.042,35.928,14.04h0.048
				c11.075,2.746,22.445,4.124,33.856,4.104c15.426,0.03,30.753-2.458,45.376-7.368
				C233.723,308.614,245.398,302.877,256.124,295.625z M216.372,297.441c-22.699,7.533-47.056,8.55-70.304,2.936h-0.088
				c-11.173-2.661-21.924-6.858-31.944-12.472l-0.008,0.024c-61.847-34.24-84.227-112.134-49.987-173.981
				s112.134-84.227,173.981-49.987c61.847,34.24,84.227,112.134,49.987,173.981c-9.873,17.834-23.863,33.052-40.805,44.387
				c-9.505,6.432-19.853,11.517-30.752,15.112H216.372z" fill="#F3DA4C"/>
			<path d="M176.052,104.041c17.673,0,32,14.327,32,32h16c-0.043-23.397-16.934-43.361-40-47.28v-16.72h-16v16.72
				c-26.112,4.572-43.575,29.446-39.003,55.559c4.003,22.863,23.792,39.587,47.003,39.721c17.673,0,32,14.327,32,32
				s-14.327,32-32,32s-32-14.327-32-32h-16c0.043,23.397,16.934,43.361,40,47.28v16.72h16v-16.72
				c26.112-4.572,43.575-29.446,39.003-55.559c-4.003-22.863-23.792-39.587-47.003-39.721c-17.673,0-32-14.327-32-32
				S158.379,104.041,176.052,104.041z" fill="#F3DA4C"/>
			<path d="M345.564,129.249C319.754,35.582,222.899-19.427,129.232,6.382C35.565,32.192-19.444,129.046,6.365,222.714
				c11.548,41.911,38.205,78.061,74.831,101.48c-24.433,56.59,1.635,122.272,58.224,146.706c14.09,6.084,29.284,9.196,44.632,9.142
				c39.915,0.142,76.85-21.1,96.8-55.672c15.223,5.06,31.158,7.651,47.2,7.672c83.89,0.062,151.946-67.895,152.007-151.785
				C480.116,203.057,422.256,138.093,345.564,129.249z M16.052,176.041L16.052,176.041C16.06,87.676,87.701,16.048,176.067,16.056
				c73.852,0.007,138.105,50.56,155.489,122.337c3.015,12.322,4.524,24.963,4.496,37.648
				c-0.028,52.146-25.466,101.007-68.168,130.936c-2.576,1.848-5.352,3.48-8.08,5.176c-5.899,3.732-12.046,7.054-18.4,9.944
				c-10.542,4.739-21.574,8.305-32.896,10.632c-3.704,0.76-7.432,1.376-11.16,1.856l-0.312,0.04
				c-6.953,0.959-13.965,1.432-20.984,1.416C87.686,336.041,16.052,264.407,16.052,176.041z M184.052,464.041
				c-52.856,0.163-95.835-42.553-95.998-95.409c-0.039-12.513,2.377-24.912,7.11-36.495c7.28,3.867,14.824,7.214,22.576,10.016
				c18.744,6.549,38.457,9.892,58.312,9.888c5.933-0.023,11.862-0.356,17.76-1c11.865,22.449,29.147,41.58,50.28,55.656
				c3.088,2.056,6.24,3.944,9.432,5.752l2.568,1.416c2.789,1.509,5.611,2.923,8.464,4.24c0.368,0.168,0.72,0.384,1.088,0.552
				C248.214,446.971,217.3,464.166,184.052,464.041z M328.052,416.041L328.052,416.041c-16.488,0.042-32.842-2.96-48.24-8.856
				c-9.454-3.554-18.465-8.187-26.856-13.808c-3.897-2.621-7.657-5.441-11.264-8.448c-0.616-0.504-1.24-1-1.848-1.512
				c-3.4-2.912-6.648-5.992-9.744-9.208c-0.608-0.64-1.208-1.296-1.808-1.944c-3.107-3.316-6.044-6.787-8.8-10.4
				c-0.272-0.36-0.52-0.744-0.8-1.104c-2.624-3.552-5.069-7.232-7.336-11.04c-0.216-0.368-0.448-0.72-0.656-1.08
				c0.176,0,0.352-0.088,0.536-0.12c0.8-0.168,1.6-0.376,2.4-0.552c2.928-0.635,5.845-1.347,8.752-2.136
				c1.216-0.328,2.4-0.688,3.64-1.048c2.608-0.773,5.205-1.613,7.792-2.52c1.12-0.392,2.248-0.76,3.36-1.176
				c3.608-1.344,7.2-2.768,10.736-4.352c5.184-2.32,10.24-4.888,15.112-7.672c3.888-2.224,7.584-4.696,11.2-7.2
				c0.912-0.624,1.92-1.16,2.816-1.8l0.064-0.04c55.82-39.122,83.976-106.998,72.24-174.144
				c74.126,11.932,124.544,81.695,112.612,155.82C451.372,367.479,394.675,415.89,328.052,416.041z" fill="#F3DA4C"/>
			<path d="M184.052,432.041c-35.33-0.04-63.96-28.67-64-64h-16c0.049,44.163,35.837,79.951,80,80
				c12.351,0.033,24.538-2.828,35.584-8.352l-7.128-14.32C203.672,429.781,193.928,432.066,184.052,432.041z" fill="#F3DA4C"/>
			<rect x="320.052" y="368.041" width="16" height="32" fill="#F3DA4C"/>
			<rect x="268.051" y="354.11" transform="matrix(-0.8661 -0.4999 0.4999 -0.8661 330.1049 828.6553)" width="16" height="32" fill="#F3DA4C"/>
			<rect x="364.051" y="362.125" transform="matrix(-0.5 -0.866 0.866 -0.5 249.5569 884.3257)" width="32" height="16" fill="#F3DA4C"/>
			<rect x="402.116" y="324.068" transform="matrix(-0.866 -0.5 0.5 -0.866 614.1648 828.7121)" width="32" height="16" fill="#F3DA4C"/>
			<rect x="416.052" y="272.041" width="32" height="16" fill="#F3DA4C"/>
			<rect x="410.114" y="212.045" transform="matrix(0.4999 0.8661 -0.8661 0.4999 406.5936 -248.0759)" width="16" height="32" fill="#F3DA4C"/>
			<rect x="372.055" y="173.973" transform="matrix(-0.8661 -0.4999 0.4999 -0.8661 614.2372 544.5016)" width="16" height="32" fill="#F3DA4C"/>
		</g>
	</g>
</g>
<g>
</g>
<g>
</g>
<g>
</g>
<g>
</g>
<g>
</g>
<g>
</g>
<g>
</g>
<g>
</g>
<g>
</g>
<g>
</g>
<g>
</g>
<g>
</g>
<g>
</g>
<g>
</g>
<g>
</g>
</svg>
